<svg xmlns="http://www.w3.org/2000/svg" viewBox="0 0 985 957"><defs><style>.cls-1{fill:#fff;}</style></defs><g id="Layer_2" data-name="Layer 2"><g id="Layer_3_copy" data-name="Layer 3 copy"><path class="cls-1" d="M940,45V307H205.06A113.19,113.19,0,0,0,92,420.06V760.28A114.86,114.86,0,0,0,206.72,875H800.61A101.5,101.5,0,0,0,902,773.61V543a45,45,0,0,0-45-45h-2.78a45,45,0,0,0-32.31,13.68c-5.26,5.42-8.57,11.13-15.83,23.63-9.19,15.83-24.58,42.33-42.26,64.3-23.05,28.63-35.2,31.26-35.93,31.39l-49.54-.15c34.45-33.44,68.44-72.43,89.21-109.69a377.83,377.83,0,0,0,17.21-35c3.48-8.12,12.22-16.5,24-23,12.58-7,27.62-11.1,40.24-11.1h31a60.07,60.07,0,0,1,60,60V804.44A107.55,107.55,0,0,1,832.44,912H177.72A132.71,132.71,0,0,1,45,779.28V45H93V165.78A103.34,103.34,0,0,0,196.22,269H376.78A103.34,103.34,0,0,0,480,165.78V45h45V167.78A103.34,103.34,0,0,0,628.22,271H794.78A103.34,103.34,0,0,0,898,167.78V45h42M983.11,0H854.89A1.89,1.89,0,0,0,853,1.89V167.78A58.23,58.23,0,0,1,794.78,226H628.22A58.23,58.23,0,0,1,570,167.78V1.89A1.89,1.89,0,0,0,568.11,0H436.89A1.89,1.89,0,0,0,435,1.89V165.78A58.23,58.23,0,0,1,376.78,224H196.22A58.23,58.23,0,0,1,138,165.78V1.89A1.89,1.89,0,0,0,136.11,0H1.89A1.89,1.89,0,0,0,0,1.89V779.28A177.72,177.72,0,0,0,177.72,957H832.44A152.56,152.56,0,0,0,985,804.44V512A105,105,0,0,0,880,407H849c-40.54,0-89.62,24.12-105.59,61.39a331.52,331.52,0,0,1-15.16,30.86C689.48,568.81,594.85,648.43,558.18,672a1.89,1.89,0,0,0,1,3.48L728,676c59.44,0,118.56-125.1,126.22-133H857V773.61A56.39,56.39,0,0,1,800.61,830H206.72A69.73,69.73,0,0,1,137,760.28V420.06A68.06,68.06,0,0,1,205.06,352H983.11a1.89,1.89,0,0,0,1.89-1.89V1.89A1.89,1.89,0,0,0,983.11,0Z"/></g></g></svg>